<svg width="64" height="64" viewBox="0 0 64 64" fill="none" xmlns="http://www.w3.org/2000/svg">
<rect width="64" height="64" fill="black"/>
<path d="M53.1612 20.7735V12.8963C53.1612 12.102 52.5173 11.4581 51.723 11.4581H33.6515C32.8572 11.4581 32.2133 12.102 32.2133 12.8963V19.0627C32.2133 20.1531 31.0524 20.844 30.0936 20.327L13.9162 11.6132C12.9574 11.1338 11.8341 11.8294 11.8341 12.901V22.2164H30.7751C31.5694 22.2164 32.2133 22.8603 32.2133 23.6546V31.4096C32.2133 31.9548 32.5188 32.453 33.0076 32.6974L53.1612 42.7742V32.8384C53.1612 32.2932 52.8557 31.795 52.3669 31.5506L34.7748 22.7569C34.5069 22.6206 34.6009 22.2164 34.9017 22.2164H51.723C52.5173 22.2164 53.1612 21.5725 53.1612 20.7782V20.7735Z" fill="white"/>
<path d="M11.8387 44.2265V52.1037C11.8387 52.898 12.4826 53.5419 13.2769 53.5419H31.3484C32.1427 53.5419 32.7866 52.898 32.7866 52.1037V45.9373C32.7866 44.8469 33.9476 44.156 34.9064 44.673L51.0838 53.3915C52.0426 53.8709 53.1659 53.1753 53.1659 52.1037V42.7883H34.2249C33.4306 42.7883 32.7866 42.1444 32.7866 41.3501V33.5951C32.7866 33.0499 32.4812 32.5517 31.9924 32.3073L11.8387 22.2305V32.1663C11.8387 32.7115 12.1442 33.2097 12.633 33.4541L30.2251 42.2478C30.493 42.3841 30.399 42.7883 30.0982 42.7883H13.2769C12.4826 42.7883 11.8387 43.4322 11.8387 44.2265Z" fill="white"/>
</svg>
