<svg viewBox="0 0 1000 291.4" fill="none" xmlns="http://www.w3.org/2000/svg">
  <g>
    <path d="M251.4,87.7v-39c0-3.9-3.2-7.1-7.1-7.1h-89.4c-3.9,0-7.1,3.2-7.1,7.1v30.5c0,5.4-5.8,8.8-10.5,6.3L57.2,42.3c-4.7-2.4-10.3,1.1-10.3,6.4v46.1h93.7c3.9,0,7.1,3.2,7.1,7.1v38.4c0,2.7,1.5,5.2,3.9,6.4l99.7,49.9v-49.2c0-2.7-1.5-5.2-3.9-6.4l-87-43.5c-1.3-.7-.9-2.7.6-2.7h83.2c3.9,0,7.1-3.2,7.1-7.1Z" fill="#FFFFFF"/>
    <path d="M46.9,203.7v39c0,3.9,3.2,7.1,7.1,7.1h89.4c3.9,0,7.1-3.2,7.1-7.1v-30.5c0-5.4,5.8-8.8,10.5-6.3l80,43.1c4.7,2.4,10.3-1.1,10.3-6.4v-46.1h-93.7c-3.9,0-7.1-3.2-7.1-7.1v-38.4c0-2.7-1.5-5.2-3.9-6.4l-99.7-49.9v49.2c0,2.7,1.5,5.2,3.9,6.4l87,43.5c1.3.7.9,2.7-.6,2.7H54c-3.9,0-7.1,3.2-7.1,7.1Z" fill="#FFFFFF"/>
  </g>
  <g>
    <path d="M367.1,231.5c-13.8,0-25.5-2.5-35.3-7.5-9.7-5-17.5-11.6-23.2-19.6-5.7-8-9.6-16.8-11.6-26.2h28.3c2.2,7.7,6.8,14.3,13.8,19.7,7,5.4,16.3,8.1,27.9,8.1s14.7-1,20.1-3c5.3-2,9.2-4.7,11.7-8.2,2.5-3.5,3.7-7.5,3.7-11.9s-1.7-8.7-5.2-11.8c-3.5-3.1-7.9-5.6-13.1-7.5-5.3-1.9-12.4-4.1-21.3-6.6-12.7-3.4-22.9-6.7-30.6-9.9-7.7-3.2-14.4-7.9-19.9-14.1s-8.3-14.6-8.3-24.9,2.4-16.5,7.3-23.9c4.9-7.4,11.9-13.3,21-17.6,9.1-4.3,19.7-6.5,31.8-6.5s23.8,2.2,33,6.7c9.2,4.5,16.4,10.3,21.6,17.4,5.2,7.1,8.6,14.9,10.3,23.4h-28.3c-1.7-6.2-5.6-11.4-11.7-15.7-6.1-4.3-14.4-6.4-24.9-6.4s-12.6,1-17.4,3c-4.8,2-8.4,4.7-10.8,8-2.4,3.3-3.6,7-3.6,11s1.7,8.5,5.1,11.6c3.4,3.1,7.7,5.6,13,7.5,5.3,1.9,12.4,4.1,21.3,6.4,12.5,3.6,22.7,6.9,30.6,10.1,7.9,3.2,14.6,7.9,20.2,14.3,5.6,6.3,8.3,14.7,8.3,25s-2.5,17.2-7.5,24.6c-5,7.4-12.3,13.4-21.9,17.9-9.6,4.5-21,6.7-34.3,6.7Z" fill="#FFFFFF"/>
    <path d="M502,229.6c-11.4,0-21.8-2.7-31.1-8-9.3-5.3-16.6-12.7-22-22-5.4-9.4-8.1-19.7-8.1-31.2s2.7-21.9,8.1-31.3c5.4-9.4,12.8-16.8,22-22.1,9.3-5.3,19.6-8,31.1-8s22,2.7,31.3,8c9.3,5.3,16.5,12.7,21.8,22,5.3,9.4,7.9,19.6,7.9,30.7v7h-96.2c.8,6,2.8,11.5,6.1,16.5,3.3,4.9,7.5,8.8,12.6,11.7,5.1,2.9,10.6,4.3,16.5,4.3s14.8-1.7,20.4-5c5.6-3.3,9.7-7.5,12.3-12.4h26.4c-3.9,11.1-10.8,20.6-20.8,28.3-10,7.7-22.8,11.6-38.4,11.6ZM535.9,156.8c-.8-4.9-2.7-9.5-5.7-13.7-3-4.2-7-7.5-11.8-10-4.9-2.5-10.3-3.7-16.4-3.7s-11.2,1.2-16.1,3.7c-4.9,2.5-8.9,5.8-11.9,10-3.1,4.2-5.3,8.7-6.5,13.7h68.4Z" fill="#FFFFFF"/>
    <path d="M578.8,226.8v-117.1h25.3v16.9h.7c3.4-5.6,8.4-10.2,15-14,6.6-3.8,14.3-5.7,23.3-5.7,14.4,0,25.7,4.4,34,13.1,8.3,8.7,12.4,21,12.4,36.7v70h-25.5v-67.3c0-10-2.5-17.6-7.4-22.6-4.9-5-11.7-7.5-20.4-7.5s-11.4,1.4-16.2,4.3c-4.8,2.9-8.6,6.9-11.5,12.3-2.9,5.3-4.3,11.4-4.3,18.2v62.6h-25.3Z" fill="#FFFFFF"/>
    <path d="M715.4,226.8v-94.6h-15.1v-22.5h15.1v-25.5h25.5v25.5h35.2v22.5h-35.2v72.1h36.4v22.5h-61.9Z" fill="#FFFFFF"/>
    <path d="M804,91.2c-4.2,0-7.8-1.5-10.9-4.5-3.1-3-4.6-6.5-4.6-10.6s1.5-7.5,4.6-10.6c3.1-3,6.7-4.5,10.9-4.5s8,1.5,11.1,4.5c3.1,3,4.6,6.5,4.6,10.6s-1.5,7.5-4.6,10.6c-3.1,3-6.8,4.5-11.1,4.5ZM791.5,226.8v-117.1h25.3v117.1h-25.3Z" fill="#FFFFFF"/>
    <path d="M887.7,229.6c-10,0-19.3-2.6-27.7-7.8-8.4-5.2-15.1-12.4-20.1-21.8-4.9-9.4-7.4-19.9-7.4-31.7s2.5-22.5,7.4-31.9c4.9-9.4,11.6-16.6,20.1-21.8,8.4-5.2,17.7-7.8,27.7-7.8s13.6,1.2,19.1,3.6c5.5,2.4,9.9,5.2,13.3,8.5,3.4,3.2,5.6,5.8,6.7,7.7h.7v-16.9h25.5v117.1h-25.5v-16.9h-.7c-1.1,2-3.3,4.6-6.7,7.8-3.4,3.2-7.9,6-13.3,8.4-5.5,2.4-11.9,3.6-19.1,3.6ZM892.8,207.1c6.5,0,12.4-1.6,17.7-4.8,5.3-3.2,9.5-7.7,12.5-13.6,3-5.9,4.5-12.7,4.5-20.4s-1.5-14.8-4.5-20.6c-3-5.9-7.2-10.4-12.5-13.6s-11.2-4.8-17.7-4.8-12.1,1.6-17.4,4.8c-5.3,3.2-9.4,7.7-12.4,13.6-3,5.9-4.5,12.8-4.5,20.6s1.5,14.5,4.5,20.4c3,5.9,7.1,10.4,12.4,13.6,5.3,3.2,11.1,4.8,17.4,4.8Z" fill="#FFFFFF"/>
  </g>
</svg>
